<?xml version="1.0" encoding="UTF-8"?>
<svg id="katman_1" data-name="katman 1" xmlns="http://www.w3.org/2000/svg" viewBox="0 0 900 450">
  <defs>
    <style>
      .cls-1 {
        fill: none;
        stroke: #000;
        stroke-linejoin: round;
        stroke-width: 7px;
      }
    </style>
  </defs>
  <g>
    <path class="cls-1" d="M0,447.99c333.23,0,623.97-180.28,779.05-447.99,76.88,131.69,120.95,284.73,120.95,447.99H0Z"/>
    <g>
      <rect class="cls-1" x="722.34" y="131.86" width="92.74" height="92.13" rx="20" ry="20"/>
      <polygon class="cls-1" points="815.08 169.69 777 169.69 777 131.86 760.42 131.86 760.42 169.69 722.34 169.69 722.34 186.17 760.42 186.17 760.42 224 777 224 777 186.17 815.08 186.17 815.08 169.69"/>
    </g>
  </g>
  <g>
    <path d="M104.7,316.25h55.72l50.19,101.34,49.81-101.34h52.57v3.51h-4.87c-8.21,0-14.3,1.98-18.27,5.92-3.97,3.94-5.96,10-5.96,18.15v77.06c0,8.09,2,14.13,6.01,18.1s10.08,5.97,18.22,5.97h4.87v3.7h-86.16v-3.7h5.73c8.14,0,14.2-1.98,18.18-5.92,3.97-3.94,5.96-10,5.96-18.15v-90.05h-.38l-57.25,117.83h-3.24l-57.92-117.45h-.38v85.41c0,5.94,1.14,10.98,3.43,15.12,2.29,4.14,5.66,7.33,10.11,9.58,4.45,2.25,9.86,3.46,16.22,3.65v3.7h-62.59v-3.7h1.33c8.59,0,15.33-2.49,20.23-7.49,4.9-4.99,7.35-11.75,7.35-20.29v-73.37c0-8.22-1.97-14.28-5.92-18.2-3.94-3.91-10.05-5.87-18.32-5.87h-4.67v-3.51h0Z"/>
    <path d="M331.83,298.79c0-5.05,4.3-9.71,9.77-9.71s9.38,4.66,9.38,9.71-4.1,9.91-9.38,9.91c-5.67,0-9.77-4.85-9.77-9.91ZM349.81,317.82v130.86h-17v-130.86h17Z"/>
    <path d="M372.67,316.25h53.53l92.65,95.36v-57.07c0-6.95-1.19-13.03-3.58-18.25-2.39-5.22-5.84-9.18-10.35-11.9-2.42-1.52-4.85-2.59-7.3-3.22-2.45-.64-5.87-1.1-10.26-1.42v-3.51h66.03v3.51h-1.33c-9.61,0-16.92,3.03-21.95,9.1-5.03,6.07-7.54,14.88-7.54,26.45v94.7h-3.15l-115.07-117.45v78.67c0,7.65.92,13.76,2.77,18.34,1.84,4.58,4.83,8.17,8.97,10.76,3.37,2.03,7.47,3.32,12.31,3.88,2.67.45,6.49.76,11.45.94v3.51h-69.56v-3.51c7.12-.38,12.93-1.63,17.41-3.75s7.79-5.27,9.92-9.43c2.13-4.17,3.2-9.35,3.2-15.55v-74.89c0-4.61-1.04-8.53-3.1-11.75-2.07-3.22-5.07-5.7-9.02-7.44-3.94-1.74-8.71-2.6-14.31-2.6h-1.72v-3.51h0Z"/>
    <path d="M569.83,298.79c0-5.05,4.3-9.71,9.77-9.71s9.38,4.66,9.38,9.71-4.1,9.91-9.38,9.91c-5.67,0-9.77-4.85-9.77-9.91ZM587.81,317.82v130.86h-17v-130.86h17Z"/>
    <path d="M613.25,316.25h84.35v3.32h-3.91c-8.01,0-14.06,2.01-18.13,6.02-4.07,4.01-6.11,10.09-6.11,18.25v57.63l63.16-50.24c4.2-3.48,7.01-6.3,8.44-8.48,1.43-2.18,2.15-4.72,2.15-7.63,0-4.74-2.04-8.51-6.11-11.33-4.07-2.81-9.61-4.22-16.6-4.22h-3.15v-3.32h77.95v3.32h-1.91c-10.75,0-26.05,7.96-45.89,23.88l-26.24,20.76,40.26,61.33c4.45,6.83,9.14,11.77,14.07,14.83,4.93,3.07,10.67,4.6,17.22,4.6h2.48v3.7h-82.25v-3.7h4.29c12.15,0,18.22-2.84,18.22-8.53,0-1.01-.27-2.1-.81-3.27s-1.64-3.05-3.29-5.64l-30.53-46.82-31.49,25.03v15.17c0,8.09,2.03,14.13,6.11,18.1,4.07,3.98,10.11,5.97,18.13,5.97h3.91v3.7h-84.15v-3.7h3.72c8.21,0,14.33-1.99,18.37-5.97,4.04-3.98,6.06-10.01,6.06-18.1v-77.06c0-8.16-2.02-14.24-6.06-18.25-4.04-4.01-10.16-6.02-18.37-6.02h-3.91v-3.32h.02Z"/>
  </g>
</svg>