<?xml version="1.0" encoding="UTF-8"?>
<svg id="katman_1" data-name="katman 1" xmlns="http://www.w3.org/2000/svg" viewBox="0 0 1000 1000">
  <defs>
    <style>
      .cls-1 {
        fill: #fff;
      }

      .cls-2 {
        fill: none;
        stroke: #000;
        stroke-miterlimit: 10;
        stroke-width: 5px;
      }
    </style>
  </defs>
  <rect class="cls-1" width="1000" height="1000"/>
  <g>
    <path d="M0,422.33h80.68l72.68,147.69,72.12-147.69h76.13v5.11h-7.04c-11.88,0-20.7,2.88-26.46,8.63-5.76,5.76-8.64,14.58-8.64,26.46v112.33c0,11.79,2.9,20.58,8.71,26.39,5.8,5.8,14.6,8.7,26.39,8.7h7.04v5.39h-124.76v-5.39h8.29c11.79,0,20.56-2.88,26.32-8.63,5.76-5.76,8.64-14.58,8.64-26.46v-131.25h-.55l-82.9,171.73h-4.7l-83.87-171.18h-.55v124.49c0,8.66,1.66,16,4.97,22.04,3.32,6.03,8.2,10.69,14.65,13.96,6.45,3.27,14.28,5.04,23.49,5.32v5.39H0v-5.39h1.93c12.44,0,22.2-3.64,29.29-10.92,7.09-7.27,10.64-17.13,10.64-29.56v-106.94c0-11.97-2.86-20.81-8.57-26.53-5.71-5.71-14.55-8.56-26.53-8.56H0v-5.11Z"/>
    <path d="M328.88,396.88c0-7.36,6.22-14.15,14.15-14.15s13.58,6.79,13.58,14.15-5.94,14.43-13.58,14.43c-8.21,0-14.15-7.07-14.15-14.43ZM354.92,424.61v190.73h-24.62v-190.73h24.62Z"/>
    <path d="M388.02,422.33h77.51l134.16,138.99v-83.17c0-10.13-1.73-19-5.18-26.59-3.46-7.6-8.45-13.38-14.99-17.34-3.5-2.21-7.02-3.78-10.57-4.7-3.55-.92-8.5-1.61-14.85-2.07v-5.11h95.61v5.11h-1.93c-13.91,0-24.5,4.42-31.78,13.26-7.28,8.84-10.91,21.69-10.91,38.55v138.02h-4.56l-166.62-171.18v114.67c0,11.15,1.33,20.06,4.01,26.73,2.67,6.68,7,11.91,12.99,15.68,4.88,2.95,10.82,4.84,17.82,5.66,3.87.65,9.39,1.11,16.58,1.38v5.11h-100.72v-5.11c10.32-.55,18.72-2.37,25.21-5.46,6.49-3.09,11.28-7.67,14.37-13.75,3.09-6.08,4.63-13.63,4.63-22.66v-109.15c0-6.72-1.5-12.44-4.49-17.13-3-4.7-7.35-8.31-13.06-10.85-5.71-2.53-12.62-3.8-20.72-3.8h-2.49v-5.11Z"/>
    <path d="M673.52,396.88c0-7.36,6.22-14.15,14.15-14.15s13.58,6.79,13.58,14.15-5.94,14.43-13.58,14.43c-8.21,0-14.15-7.07-14.15-14.43ZM699.56,424.61v190.73h-24.62v-190.73h24.62Z"/>
    <path d="M736.39,422.33h122.13v4.84h-5.66c-11.6,0-20.35,2.93-26.25,8.77-5.9,5.85-8.84,14.71-8.84,26.59v84l91.46-73.23c6.08-5.07,10.15-9.19,12.22-12.37,2.07-3.18,3.11-6.88,3.11-11.12,0-6.91-2.95-12.41-8.84-16.51-5.9-4.1-13.91-6.15-24.04-6.15h-4.56v-4.84h112.88v4.84h-2.77c-15.56,0-37.72,11.6-66.45,34.82l-37.99,30.26,58.3,89.39c6.45,9.95,13.24,17.16,20.38,21.62,7.14,4.47,15.45,6.7,24.94,6.7h3.59v5.39h-119.09v-5.39h6.22c17.59,0,26.39-4.15,26.39-12.44,0-1.47-.39-3.06-1.17-4.77-.78-1.7-2.37-4.44-4.77-8.22l-44.21-68.25-45.59,36.47v22.11c0,11.79,2.95,20.58,8.84,26.39,5.89,5.8,14.64,8.7,26.25,8.7h5.66v5.39h-121.85v-5.39h5.39c11.88,0,20.75-2.9,26.6-8.7,5.85-5.8,8.77-14.6,8.77-26.39v-112.33c0-11.88-2.93-20.75-8.77-26.59-5.85-5.85-14.71-8.77-26.6-8.77h-5.66v-4.84Z"/>
  </g>
  <g>
    <path class="cls-2" d="M0,617.27c370.25,0,693.3-201.63,865.61-501.04,85.42,147.29,134.39,318.44,134.39,501.04H0Z"/>
    <g>
      <rect class="cls-2" x="740.02" y="352.44" width="174.82" height="174.82" rx="20" ry="20"/>
      <polygon class="cls-2" points="914.84 424.22 843.07 424.22 843.07 352.44 811.8 352.44 811.8 424.22 740.02 424.22 740.02 455.49 811.8 455.49 811.8 527.26 843.07 527.26 843.07 455.49 914.84 455.49 914.84 424.22"/>
    </g>
  </g>
</svg>