<?xml version="1.0" encoding="UTF-8"?>
<svg id="katman_1" data-name="katman 1" xmlns="http://www.w3.org/2000/svg" viewBox="0 0 1000 1000">
  <defs>
    <style>
      .cls-1 {
        fill: #fff;
      }

      .cls-2 {
        fill: none;
        stroke: #000;
        stroke-miterlimit: 10;
        stroke-width: 2px;
      }
    </style>
  </defs>
  <rect class="cls-1" width="1000" height="1000"/>
  <g>
    <path class="cls-2" d="M0,750.52c370.25,0,693.3-201.63,865.61-501.04,85.42,147.29,134.39,318.44,134.39,501.04H0Z"/>
    <g>
      <rect class="cls-2" x="740.02" y="485.69" width="174.82" height="174.82" rx="20" ry="20"/>
      <polygon class="cls-2" points="914.84 557.47 843.07 557.47 843.07 485.69 811.8 485.69 811.8 557.47 740.02 557.47 740.02 588.73 811.8 588.73 811.8 660.51 843.07 660.51 843.07 588.73 914.84 588.73 914.84 557.47"/>
    </g>
  </g>
  <g>
    <path d="M154.7,615.89h55.72l50.19,102,49.81-102h52.57v3.53h-4.87c-8.21,0-14.3,1.99-18.27,5.96s-5.96,10.07-5.96,18.27v77.57c0,8.14,2,14.22,6.01,18.22s10.08,6.01,18.22,6.01h4.87v3.72h-86.16v-3.72h5.73c8.14,0,14.2-1.99,18.18-5.96,3.97-3.97,5.96-10.07,5.96-18.27v-90.64h-.38l-57.25,118.6h-3.24l-57.92-118.22h-.38v85.97c0,5.98,1.14,11.05,3.43,15.22,2.29,4.17,5.66,7.38,10.11,9.64s9.86,3.48,16.22,3.67v3.72h-62.59v-3.72h1.33c8.59,0,15.33-2.51,20.23-7.54,4.9-5.02,7.35-11.83,7.35-20.42v-73.85c0-8.27-1.97-14.37-5.92-18.32-3.94-3.94-10.05-5.91-18.32-5.91h-4.67v-3.53Z"/>
    <path d="M381.83,598.32c0-5.08,4.3-9.77,9.77-9.77s9.38,4.69,9.38,9.77-4.1,9.97-9.38,9.97c-5.67,0-9.77-4.88-9.77-9.97ZM399.81,617.47v131.72h-17v-131.72h17Z"/>
    <path d="M422.67,615.89h53.53l92.65,95.99v-57.44c0-7-1.19-13.12-3.58-18.37-2.39-5.25-5.84-9.24-10.35-11.98-2.42-1.53-4.85-2.61-7.3-3.24-2.45-.64-5.87-1.11-10.26-1.43v-3.53h66.03v3.53h-1.33c-9.61,0-16.92,3.05-21.95,9.16-5.03,6.11-7.54,14.98-7.54,26.62v95.32h-3.15l-115.07-118.22v79.19c0,7.7.92,13.85,2.77,18.46,1.84,4.61,4.83,8.22,8.97,10.83,3.37,2.04,7.47,3.34,12.31,3.91,2.67.45,6.49.76,11.45.95v3.53h-69.56v-3.53c7.12-.38,12.93-1.64,17.41-3.77,4.48-2.13,7.79-5.3,9.92-9.49,2.13-4.2,3.2-9.41,3.2-15.65v-75.38c0-4.64-1.04-8.59-3.1-11.83-2.07-3.24-5.07-5.74-9.02-7.49-3.94-1.75-8.71-2.62-14.31-2.62h-1.72v-3.53Z"/>
    <path d="M619.83,598.32c0-5.08,4.3-9.77,9.77-9.77s9.38,4.69,9.38,9.77-4.1,9.97-9.38,9.97c-5.67,0-9.77-4.88-9.77-9.97ZM637.81,617.47v131.72h-17v-131.72h17Z"/>
    <path d="M663.25,615.89h84.35v3.34h-3.91c-8.01,0-14.06,2.02-18.13,6.06-4.07,4.04-6.11,10.16-6.11,18.37v58.01l63.16-50.57c4.2-3.5,7.01-6.34,8.44-8.54,1.43-2.19,2.15-4.75,2.15-7.68,0-4.77-2.04-8.57-6.11-11.4-4.07-2.83-9.61-4.25-16.6-4.25h-3.15v-3.34h77.95v3.34h-1.91c-10.75,0-26.05,8.01-45.89,24.04l-26.24,20.9,40.26,61.73c4.45,6.87,9.14,11.85,14.07,14.93,4.93,3.09,10.67,4.63,17.22,4.63h2.48v3.72h-82.25v-3.72h4.29c12.15,0,18.22-2.86,18.22-8.59,0-1.02-.27-2.11-.81-3.29-.54-1.18-1.64-3.07-3.29-5.68l-30.53-47.13-31.49,25.19v15.27c0,8.14,2.03,14.22,6.11,18.22,4.07,4.01,10.11,6.01,18.13,6.01h3.91v3.72h-84.15v-3.72h3.72c8.21,0,14.33-2,18.37-6.01,4.04-4.01,6.06-10.08,6.06-18.22v-77.57c0-8.21-2.02-14.33-6.06-18.37-4.04-4.04-10.16-6.06-18.37-6.06h-3.91v-3.34Z"/>
  </g>
</svg>