<?xml version="1.0" encoding="UTF-8"?>
<svg id="katman_1" data-name="katman 1" xmlns="http://www.w3.org/2000/svg" viewBox="0 0 900 450">
  <defs>
    <style>
      .cls-1 {
        fill: none;
        stroke: #000;
        stroke-linejoin: round;
        stroke-width: 7px;
      }
    </style>
  </defs>
  <g>
    <path class="cls-1" d="M0,447.99c333.23,0,623.97-180.28,779.05-447.99,76.88,131.69,120.95,284.73,120.95,447.99H0Z"/>
    <g>
      <rect class="cls-1" x="722.34" y="131.86" width="92.74" height="92.13" rx="20" ry="20"/>
      <polygon class="cls-1" points="815.08 169.69 777 169.69 777 131.86 760.42 131.86 760.42 169.69 722.34 169.69 722.34 186.17 760.42 186.17 760.42 224 777 224 777 186.17 815.08 186.17 815.08 169.69"/>
    </g>
  </g>
  <g>
    <path d="M0,276.69h72.62l65.41,132.06,64.91-132.06h68.51v4.57h-6.35c-10.7,0-18.64,2.58-23.81,7.72s-7.77,13.04-7.77,23.65v100.43c0,10.54,2.61,18.41,7.83,23.59s13.14,7.78,23.74,7.78h6.35v4.82h-112.29v-4.82h7.47c10.61,0,18.51-2.58,23.69-7.72,5.17-5.14,7.77-13.04,7.77-23.65v-117.36h-.5l-74.61,153.56h-4.22l-75.48-153.06h-.5v111.31c0,7.74,1.49,14.31,4.47,19.71,2.98,5.4,7.38,9.56,13.18,12.48,5.8,2.93,12.85,4.51,21.14,4.75v4.82H0v-4.82h1.73c11.19,0,19.98-3.25,26.36-9.76,6.39-6.5,9.58-15.32,9.58-26.44v-95.62c0-10.71-2.57-18.61-7.72-23.72-5.13-5.1-13.1-7.65-23.88-7.65H0v-4.57h0Z"/>
    <path d="M296,253.94c0-6.58,5.6-12.65,12.73-12.65s12.22,6.07,12.22,12.65-5.34,12.91-12.22,12.91c-7.39,0-12.73-6.32-12.73-12.91ZM319.44,278.73v170.54h-22.15v-170.54h22.15Z"/>
    <path d="M349.23,276.69h69.76l120.74,124.28v-74.37c0-9.06-1.55-16.99-4.67-23.78-3.11-6.8-7.61-11.96-13.49-15.51-3.15-1.98-6.32-3.38-9.51-4.19-3.19-.83-7.65-1.44-13.37-1.85v-4.57h86.05v4.57h-1.73c-12.52,0-22.05,3.95-28.61,11.86-6.56,7.91-9.83,19.4-9.83,34.47v123.41h-4.11l-149.96-153.06v102.53c0,9.97,1.2,17.93,3.61,23.9,2.4,5.97,6.29,10.64,11.69,14.02,4.39,2.64,9.74,4.32,16.04,5.06,3.48.58,8.46.98,14.92,1.23v4.57h-90.65v-4.57c9.28-.49,16.85-2.12,22.69-4.88,5.84-2.76,10.15-6.86,12.93-12.29,2.78-5.44,4.17-12.18,4.17-20.26v-97.6c0-6.01-1.36-11.12-4.04-15.32-2.7-4.19-6.61-7.43-11.76-9.7-5.13-2.27-11.35-3.39-18.65-3.39h-2.24v-4.57h0Z"/>
    <path d="M606.17,253.94c0-6.58,5.6-12.65,12.73-12.65s12.22,6.07,12.22,12.65-5.34,12.91-12.22,12.91c-7.39,0-12.73-6.32-12.73-12.91ZM629.61,278.73v170.54h-22.15v-170.54h22.15Z"/>
    <path d="M662.76,276.69h109.93v4.32h-5.1c-10.44,0-18.32,2.62-23.63,7.85-5.3,5.23-7.96,13.15-7.96,23.78v75.11l82.31-65.48c5.47-4.53,9.14-8.21,11-11.06,1.86-2.84,2.8-6.15,2.8-9.94,0-6.18-2.66-11.1-7.96-14.76-5.3-3.66-12.52-5.5-21.63-5.5h-4.11v-4.32h101.59v4.32h-2.49c-14.01,0-33.95,10.37-59.81,31.13l-34.2,27.06,52.47,79.92c5.8,8.89,11.91,15.34,18.34,19.33,6.42,4,13.91,5.99,22.44,5.99h3.23v4.82h-107.19v-4.82h5.59c15.83,0,23.74-3.7,23.74-11.12,0-1.32-.35-2.73-1.06-4.26-.7-1.53-2.14-3.97-4.29-7.35l-39.79-61.02-41.04,32.61v19.77c0,10.54,2.65,18.41,7.96,23.59,5.3,5.19,13.18,7.78,23.63,7.78h5.1v4.82h-109.67v-4.82h4.85c10.7,0,18.68-2.59,23.94-7.78,5.27-5.19,7.9-13.05,7.9-23.59v-100.43c0-10.63-2.63-18.55-7.9-23.78-5.27-5.23-13.24-7.85-23.94-7.85h-5.1v-4.32h.03Z"/>
  </g>
</svg>